<?xml version="1.0" standalone="no"?>
<!DOCTYPE svg PUBLIC "-//W3C//DTD SVG 20010904//EN"
 "http://www.w3.org/TR/2001/REC-SVG-20010904/DTD/svg10.dtd">
<svg version="1.0" xmlns="http://www.w3.org/2000/svg"
 width="920.000000pt" height="518.000000pt" viewBox="0 0 920.000000 518.000000"
 preserveAspectRatio="xMidYMid meet">

<g transform="translate(0.000000,518.000000) scale(0.100000,-0.100000)"
fill="#000000" stroke="none">
<path d="M5455 5174 c-185 -15 -290 -43 -417 -112 -234 -128 -326 -325 -442
-952 -24 -130 -36 -230 -40 -335 -4 -82 -9 -160 -12 -172 -4 -13 -36 -41 -79
-70 l-74 -48 46 -85 c25 -47 56 -96 69 -110 23 -26 24 -26 14 -175 -8 -137
-33 -326 -45 -346 -3 -4 -9 -27 -13 -51 l-9 -44 691 -37 c380 -21 701 -38 714
-37 22 0 22 2 22 130 l0 130 24 0 c53 0 184 34 231 59 120 66 164 97 165 113
0 16 -73 164 -90 182 -9 9 -50 -16 -107 -65 -30 -26 -108 -56 -190 -74 l-33
-7 0 41 c0 53 25 78 90 92 28 6 50 15 50 20 0 5 27 22 59 39 33 16 62 34 66
40 7 12 -41 83 -83 123 l-29 28 -48 -30 c-26 -16 -60 -33 -76 -36 -16 -4 -32
-11 -35 -17 -4 -6 -17 38 -29 98 -12 60 -30 124 -39 141 -9 18 -16 38 -16 45
0 24 -66 152 -122 235 -39 57 -61 105 -78 162 -12 44 -29 86 -37 93 -8 6 -25
32 -38 57 -12 25 -43 73 -68 107 -53 72 -63 108 -47 173 13 56 48 93 102 110
32 10 42 9 75 -8 47 -23 69 -46 53 -56 -5 -3 -10 -15 -10 -26 0 -11 -4 -18
-10 -14 -6 4 -6 15 1 32 5 14 7 28 4 31 -3 3 -5 -1 -6 -9 0 -8 -3 -6 -8 5 -4
11 -16 21 -27 23 -42 8 -73 10 -72 4 2 -18 -3 -24 -11 -13 -5 9 -8 3 -9 -17
-1 -43 -12 -72 -23 -65 -6 3 -6 11 -1 17 4 7 9 26 9 42 0 17 -1 22 -4 12 -2
-9 -8 -15 -13 -12 -10 6 -20 -8 -26 -38 -2 -12 -6 -32 -8 -45 -3 -13 -1 -20 5
-17 5 4 9 -1 9 -10 0 -9 -5 -13 -11 -9 -8 4 -8 0 0 -15 7 -11 9 -21 5 -21 -3
0 -1 -7 6 -15 7 -8 16 -13 20 -10 4 3 11 -2 14 -11 10 -25 7 -27 -11 -13 -16
13 -17 12 -5 -3 8 -10 19 -16 24 -15 6 1 13 -4 16 -12 3 -9 0 -11 -9 -6 -8 5
-6 0 4 -12 9 -11 14 -23 10 -28 -5 -4 -2 -5 6 0 8 5 12 4 8 -1 -3 -5 1 -17 8
-27 13 -17 14 -17 20 3 4 12 4 33 0 47 -5 22 -4 25 8 15 16 -14 15 -49 -3 -82
-7 -12 -7 -20 -2 -16 6 3 12 1 15 -6 2 -7 2 -3 0 10 -2 12 -1 22 2 22 13 0 22
-46 11 -60 -10 -13 -9 -13 8 0 18 14 18 13 12 -10 -5 -17 -4 -21 2 -11 8 11
11 11 16 0 3 -8 3 -3 0 10 -4 16 -3 21 5 17 6 -4 11 -14 11 -22 0 -18 24 -18
40 1 16 19 22 77 7 68 -6 -4 -8 0 -4 9 3 10 -4 25 -19 39 -13 12 -24 19 -24
14 0 -4 -8 -1 -17 8 -10 8 -22 17 -28 19 -5 2 -9 6 -8 10 2 5 -3 7 -10 5 -6
-1 -11 4 -10 10 2 7 -3 12 -10 10 -6 -1 -11 4 -10 10 2 7 -3 12 -10 10 -6 -1
-11 4 -10 11 2 6 -3 11 -10 10 -6 -2 -11 3 -9 10 1 6 -3 11 -10 10 -6 -2 -13
6 -15 17 -3 16 -2 17 6 5 7 -9 11 -10 11 -3 0 6 -4 15 -10 18 -5 3 -10 11 -10
16 0 6 4 8 8 5 5 -3 9 0 10 7 5 42 16 78 24 83 5 3 6 -6 3 -23 -4 -23 -4 -24
4 -8 6 12 10 15 10 6 1 -8 4 -12 7 -9 3 4 1 15 -5 26 -6 11 -7 22 -3 26 3 4
12 -8 18 -26 7 -22 17 -33 30 -33 10 -1 18 -6 17 -13 -2 -7 3 -11 10 -10 6 2
11 -3 9 -10 -1 -8 2 -11 7 -8 13 8 41 -33 34 -50 -3 -8 -10 -11 -16 -7 -6 3
-7 1 -3 -6 9 -15 39 1 42 23 1 9 -2 13 -8 10 -6 -4 -8 2 -4 17 3 13 3 18 0 11
-3 -6 -10 -9 -15 -6 -6 3 -6 11 2 20 6 7 16 11 23 7 6 -4 5 1 -3 10 -14 18
-26 23 -16 8 3 -5 1 -12 -5 -16 -5 -3 -10 3 -10 14 0 11 5 23 10 26 17 11 11
48 -12 74 l-23 26 28 -25 c18 -16 27 -33 26 -50 -2 -46 1 -45 30 5 16 28 42
65 58 83 25 30 36 34 108 44 105 13 354 3 402 -17 19 -8 38 -15 41 -15 11 0
-7 158 -22 195 -43 103 -133 205 -224 254 -31 17 -185 53 -204 48 -10 -3 -16
-2 -13 2 13 22 -219 37 -380 25z m-172 -41 c-7 -2 -19 -2 -25 0 -7 3 -2 5 12
5 14 0 19 -2 13 -5z m44 -9 c-3 -3 -12 -4 -19 -1 -8 3 -5 6 6 6 11 1 17 -2 13
-5z m738 -74 c-3 -4 5 -16 16 -26 18 -16 79 -123 79 -138 0 -2 -15 -6 -34 -8
-19 -2 -32 0 -30 4 3 4 0 8 -6 8 -6 0 -8 5 -5 10 3 6 1 10 -5 10 -6 0 -8 4 -5
10 3 5 -29 47 -72 92 -42 46 -71 77 -63 71 8 -7 34 -13 58 -13 41 0 43 1 31
18 -7 9 -1 6 13 -7 15 -13 25 -27 23 -31z m-952 13 c-7 -2 -21 -2 -30 0 -10 3
-4 5 12 5 17 0 24 -2 18 -5z m80 -10 c-13 -2 -33 -2 -45 0 -13 2 -3 4 22 4 25
0 35 -2 23 -4z m388 -73 c47 -33 99 -75 115 -93 23 -25 24 -27 4 -10 -23 20
-30 21 -62 11 -32 -10 -39 -8 -69 14 -47 36 -98 60 -109 53 -6 -3 -10 -2 -10
4 0 5 -14 13 -32 16 l-32 7 42 40 c31 28 45 36 55 28 6 -5 51 -37 98 -70z
m-328 63 c-7 -2 -19 -2 -25 0 -7 3 -2 5 12 5 14 0 19 -2 13 -5z m44 -9 c-3 -3
-12 -4 -19 -1 -8 3 -5 6 6 6 11 1 17 -2 13 -5z m274 -151 c13 -16 12 -17 -3
-4 -17 13 -22 21 -14 21 2 0 10 -8 17 -17z m40 -30 c13 -16 12 -17 -3 -4 -10
7 -18 15 -18 17 0 8 8 3 21 -13z m44 -33 c10 -11 16 -20 13 -20 -3 0 -13 9
-23 20 -10 11 -16 20 -13 20 3 0 13 -9 23 -20z m55 -45 c13 -14 21 -25 18 -25
-2 0 -15 11 -28 25 -13 14 -21 25 -18 25 2 0 15 -11 28 -25z m-442 -35 c2 -19
9 -38 15 -42 7 -4 -2 -5 -18 -3 -17 2 -81 4 -142 4 l-113 1 0 40 0 41 128 -3
127 -3 3 -35z m-320 23 c-32 -2 -84 -2 -115 0 -32 2 -6 3 57 3 63 0 89 -1 58
-3z m410 -10 c-16 -2 -40 -2 -55 0 -16 2 -3 4 27 4 30 0 43 -2 28 -4z m439
-65 c-3 -7 -5 -2 -5 12 0 14 2 19 5 13 2 -7 2 -19 0 -25z m-879 5 c-32 -2 -84
-2 -115 0 -32 2 -6 3 57 3 63 0 89 -1 58 -3z m425 -10 c-7 -2 -21 -2 -30 0
-10 3 -4 5 12 5 17 0 24 -2 18 -5z m247 -28 c13 -14 21 -25 18 -25 -2 0 -15
11 -28 25 -13 14 -21 25 -18 25 2 0 15 -11 28 -25z m-20 -107 c0 -5 -4 -6 -10
-3 -6 4 -7 -1 -3 -11 5 -14 8 -13 19 7 7 13 14 20 14 14 0 -5 3 -21 6 -35 5
-20 4 -23 -6 -13 -7 6 -19 9 -26 6 -8 -3 -14 -1 -14 3 0 5 -3 19 -6 32 -5 18
-3 21 10 16 9 -3 16 -10 16 -16z m-119 -52 c-7 -8 -8 -17 -3 -20 5 -3 8 -20 6
-39 -4 -29 3 -40 61 -97 36 -36 69 -63 72 -61 4 2 12 -4 17 -12 8 -12 7 -20
-3 -29 -11 -11 -13 -10 -8 3 3 9 1 22 -4 30 -5 8 -9 10 -10 4 0 -5 -2 -20 -3
-32 -1 -12 1 -20 6 -17 7 5 13 -19 9 -40 -1 -5 4 -4 13 3 11 10 15 9 19 -1 2
-7 2 -2 0 11 -4 22 -3 23 14 10 16 -13 17 -12 5 3 -8 9 -10 23 -6 29 4 8 3 9
-4 5 -7 -4 -12 0 -12 10 0 16 1 16 20 -1 11 -10 17 -22 14 -27 -3 -5 -1 -14 4
-21 11 -14 8 -45 -7 -60 -8 -8 -16 -5 -27 11 -8 12 -20 20 -25 17 -11 -8 -33
41 -34 76 -1 29 -22 62 -35 54 -5 -3 -6 -22 -3 -43 3 -20 3 -35 0 -32 -3 3 -6
10 -7 15 -1 6 -7 16 -13 24 -7 7 -12 19 -12 25 -1 13 -44 106 -50 106 -2 0 -1
-10 3 -22 3 -14 1 -19 -6 -14 -6 3 -9 22 -6 41 2 18 0 36 -6 40 -6 4 -5 16 1
33 6 15 10 28 10 30 -1 1 -1 7 -1 14 0 9 3 9 12 0 8 -8 8 -15 -1 -26z m-753
-153 c-10 -2 -26 -2 -35 0 -10 3 -2 5 17 5 19 0 27 -2 18 -5z m70 -10 c-10 -2
-26 -2 -35 0 -10 3 -2 5 17 5 19 0 27 -2 18 -5z m70 -10 c-10 -2 -26 -2 -35 0
-10 3 -2 5 17 5 19 0 27 -2 18 -5z m65 -10 c-7 -2 -21 -2 -30 0 -10 3 -4 5 12
5 17 0 24 -2 18 -5z m50 -10 c-7 -2 -19 -2 -25 0 -7 3 -2 5 12 5 14 0 19 -2
13 -5z m352 -16 l140 -1 -122 -3 -123 -4 0 -34 0 -35 -107 0 c-60 0 -117 -2
-128 -4 -11 -2 -14 -1 -7 1 8 3 11 11 8 19 -3 8 -3 28 1 45 l6 32 96 -8 c53
-3 159 -7 236 -8z m-602 -34 c-7 -2 -19 -2 -25 0 -7 3 -2 5 12 5 14 0 19 -2
13 -5z m50 -10 c-7 -2 -19 -2 -25 0 -7 3 -2 5 12 5 14 0 19 -2 13 -5z m50 -10
c-7 -2 -19 -2 -25 0 -7 3 -2 5 12 5 14 0 19 -2 13 -5z m808 -20 c-8 -15 -10
-15 -11 -2 0 17 10 32 18 25 2 -3 -1 -13 -7 -23z m-758 10 c-7 -2 -19 -2 -25
0 -7 3 -2 5 12 5 14 0 19 -2 13 -5z m65 -10 c-10 -2 -26 -2 -35 0 -10 3 -2 5
17 5 19 0 27 -2 18 -5z m180 -20 c-15 -2 -42 -2 -60 0 -18 2 -6 4 27 4 33 0
48 -2 33 -4z m110 -10 c-16 -2 -40 -2 -55 0 -16 2 -3 4 27 4 30 0 43 -2 28 -4z
m234 0 c-40 -2 -103 -2 -140 0 -37 2 -4 3 73 3 77 0 107 -2 67 -3z m-814 -250
c-10 -2 -28 -2 -40 0 -13 2 -5 4 17 4 22 1 32 -1 23 -4z m70 -10 c-10 -2 -26
-2 -35 0 -10 3 -2 5 17 5 19 0 27 -2 18 -5z m70 -10 c-10 -2 -26 -2 -35 0 -10
3 -2 5 17 5 19 0 27 -2 18 -5z m70 -10 c-10 -2 -26 -2 -35 0 -10 3 -2 5 17 5
19 0 27 -2 18 -5z m80 -10 c-10 -2 -28 -2 -40 0 -13 2 -5 4 17 4 22 1 32 -1
23 -4z m442 -6 l165 -1 -137 -3 -138 -4 0 -29 0 -29 108 -3 c59 -2 6 -3 -118
-3 -124 0 -207 3 -185 7 23 4 -10 6 -75 4 -63 -1 -100 -1 -82 2 23 2 32 8 32
22 0 52 4 53 139 46 69 -4 200 -8 291 -9z m263 6 c-18 -2 -48 -2 -65 0 -18 2
-4 4 32 4 36 0 50 -2 33 -4z m-1005 -30 c-10 -2 -26 -2 -35 0 -10 3 -2 5 17 5
19 0 27 -2 18 -5z m80 -10 c-10 -2 -28 -2 -40 0 -13 2 -5 4 17 4 22 1 32 -1
23 -4z m80 -10 c-10 -2 -28 -2 -40 0 -13 2 -5 4 17 4 22 1 32 -1 23 -4z m70
-10 c-10 -2 -26 -2 -35 0 -10 3 -2 5 17 5 19 0 27 -2 18 -5z m710 -10 c-16 -2
-40 -2 -55 0 -16 2 -3 4 27 4 30 0 43 -2 28 -4z m59 1 c-3 -3 -12 -4 -19 -1
-8 3 -5 6 6 6 11 1 17 -2 13 -5z m76 -1 c-7 -2 -19 -2 -25 0 -7 3 -2 5 12 5
14 0 19 -2 13 -5z m-985 -350 c-32 -2 -86 -2 -120 0 -35 2 -9 3 57 3 66 0 94
-1 63 -3z m180 -10 c-21 -2 -57 -2 -80 0 -24 2 -7 4 37 4 44 0 63 -2 43 -4z
m302 -9 c25 -2 86 -5 135 -6 74 -1 79 -2 28 -5 -62 -4 -63 -4 -63 -33 0 -19 6
-30 18 -34 9 -2 1 -2 -20 1 -20 3 -123 6 -230 6 -106 1 -178 3 -160 5 30 3 32
5 32 44 l0 41 108 -8 c59 -4 127 -9 152 -11z m368 -21 c-27 -2 -69 -2 -95 0
-27 2 -5 3 47 3 52 0 74 -1 48 -3z m230 -10 c-32 -2 -86 -2 -120 0 -35 2 -9 3
57 3 66 0 94 -1 63 -3z m-1130 -20 c-21 -2 -57 -2 -80 0 -24 2 -7 4 37 4 44 0
63 -2 43 -4z m165 -10 c-24 -2 -62 -2 -85 0 -24 2 -5 4 42 4 47 0 66 -2 43 -4z
m585 -30 c-16 -2 -40 -2 -55 0 -16 2 -3 4 27 4 30 0 43 -2 28 -4z m110 -10
c-16 -2 -40 -2 -55 0 -16 2 -3 4 27 4 30 0 43 -2 28 -4z m125 -10 c-18 -2 -48
-2 -65 0 -18 2 -4 4 32 4 36 0 50 -2 33 -4z m85 0 c-10 -2 -26 -2 -35 0 -10 3
-2 5 17 5 19 0 27 -2 18 -5z m80 0 c-10 -2 -28 -2 -40 0 -13 2 -5 4 17 4 22 1
32 -1 23 -4z m49 1 c-3 -3 -12 -4 -19 -1 -8 3 -5 6 6 6 11 1 17 -2 13 -5z
m-1264 -271 c-13 -2 -33 -2 -45 0 -13 2 -3 4 22 4 25 0 35 -2 23 -4z m85 -10
c-10 -2 -28 -2 -40 0 -13 2 -5 4 17 4 22 1 32 -1 23 -4z m85 -10 c-13 -2 -33
-2 -45 0 -13 2 -3 4 22 4 25 0 35 -2 23 -4z m85 -10 c-10 -2 -28 -2 -40 0 -13
2 -5 4 17 4 22 1 32 -1 23 -4z m290 -19 l162 -7 0 -44 c0 -51 23 -49 -227 -26
l-191 17 -4 35 -3 36 50 -2 c27 -1 123 -5 213 -9z m-560 -21 c-10 -2 -28 -2
-40 0 -13 2 -5 4 17 4 22 1 32 -1 23 -4z m780 0 c-10 -2 -26 -2 -35 0 -10 3
-2 5 17 5 19 0 27 -2 18 -5z m-700 -10 c-10 -2 -28 -2 -40 0 -13 2 -5 4 17 4
22 1 32 -1 23 -4z m845 0 c-24 -2 -62 -2 -85 0 -24 2 -5 4 42 4 47 0 66 -2 43
-4z m-760 -10 c-13 -2 -33 -2 -45 0 -13 2 -3 4 22 4 25 0 35 -2 23 -4z m1050
0 c-46 -2 -120 -2 -165 0 -46 1 -9 3 82 3 91 0 128 -2 83 -3z m-965 -10 c-10
-2 -28 -2 -40 0 -13 2 -5 4 17 4 22 1 32 -1 23 -4z m570 -40 c-15 -2 -42 -2
-60 0 -18 2 -6 4 27 4 33 0 48 -2 33 -4z m110 -10 c-16 -2 -40 -2 -55 0 -16 2
-3 4 27 4 30 0 43 -2 28 -4z m155 -10 c-24 -2 -62 -2 -85 0 -24 2 -5 4 42 4
47 0 66 -2 43 -4z m95 -10 c-10 -2 -26 -2 -35 0 -10 3 -2 5 17 5 19 0 27 -2
18 -5z m110 0 c-10 -2 -28 -2 -40 0 -13 2 -5 4 17 4 22 1 32 -1 23 -4z"/>
<path d="M5483 4354 c9 -11 14 -24 10 -29 -5 -4 -3 -5 4 -1 6 3 13 -1 16 -11
4 -14 5 -15 6 -2 0 8 -11 26 -26 40 -20 17 -23 18 -10 3z"/>
<path d="M5640 4181 c-7 -15 -7 -22 2 -27 7 -4 10 -4 6 1 -4 4 -3 16 3 26 5
11 7 19 5 19 -3 0 -10 -9 -16 -19z"/>
<path d="M6045 4609 c-33 -11 -98 -23 -145 -28 l-85 -8 85 -2 c47 0 114 6 150
15 59 13 69 13 107 -1 23 -9 54 -30 68 -47 29 -35 55 -32 55 7 0 18 -12 33
-42 55 -49 36 -101 38 -193 9z"/>
<path d="M5775 4502 c-6 -15 28 -51 49 -52 5 0 59 -25 121 -55 125 -62 170
-68 243 -35 48 22 52 38 22 87 -29 48 -52 56 -134 49 -210 -19 -253 -19 -274
2 -18 18 -21 19 -27 4z"/>
<path d="M5673 4459 c9 -28 137 -220 215 -323 81 -108 149 -191 221 -270 25
-27 40 -51 34 -53 -10 -4 38 -63 275 -348 97 -116 174 -205 178 -205 17 0 124
63 146 87 23 23 58 89 58 108 0 2 -22 16 -49 30 -69 35 -155 96 -224 160 -32
31 -67 61 -76 68 -19 14 -102 121 -120 155 l-12 22 -48 -40 c-65 -55 -91 -53
-145 8 -137 152 -274 331 -383 500 -42 64 -73 110 -70 101z"/>
<path d="M6236 4180 c8 -42 8 -43 30 -38 17 3 17 5 -2 23 -12 11 -24 27 -28
35 -3 8 -3 -1 0 -20z"/>
<path d="M6426 4195 c-3 -9 -10 -13 -16 -10 -5 3 -16 3 -22 -2 -17 -10 -37
-14 -75 -16 -26 -1 -32 -5 -29 -22 3 -21 36 -35 36 -15 0 6 -4 9 -8 6 -5 -3
-9 1 -9 9 0 11 3 12 14 3 10 -8 17 -8 25 0 7 7 22 12 35 12 13 0 23 5 23 11 0
5 4 8 9 5 10 -6 37 22 29 30 -3 3 -8 -2 -12 -11z"/>
<path d="M6320 4055 c-10 -12 -10 -18 1 -32 13 -16 12 -17 -3 -4 -15 11 -22
10 -51 -6 -18 -11 -41 -19 -51 -17 -14 2 -16 0 -7 -9 8 -8 25 -8 67 1 32 6 58
13 60 15 2 2 7 18 10 35 7 34 -5 42 -26 17z"/>
<path d="M6316 3953 c-6 -14 -5 -15 5 -6 7 7 10 15 7 18 -3 3 -9 -2 -12 -12z"/>
<path d="M4340 3304 c-44 -31 -225 -124 -310 -159 -98 -40 -204 -55 -425 -62
-168 -4 -229 -2 -380 16 -99 12 -221 31 -271 42 -137 31 -257 23 -419 -29
-102 -32 -270 -120 -335 -176 -36 -30 -93 -76 -126 -103 -34 -26 -74 -68 -90
-93 -16 -25 -49 -67 -75 -95 -33 -36 -56 -76 -84 -145 -20 -52 -41 -99 -44
-105 -28 -39 -58 -318 -48 -439 8 -97 90 -446 102 -434 3 2 -4 33 -14 68 -34
120 -72 297 -78 366 -10 121 20 400 48 439 3 6 24 53 44 105 28 69 51 109 84
145 26 28 57 67 69 87 21 34 95 101 240 216 55 45 216 126 307 154 161 52 282
60 419 29 50 -11 172 -30 271 -42 151 -18 212 -20 380 -16 293 9 364 25 584
137 100 50 213 120 196 119 -5 0 -26 -11 -45 -25z"/>
<path d="M2810 2920 c-69 -10 -145 -23 -170 -29 -58 -14 -156 -14 -182 0 -11
6 -22 8 -25 6 -2 -3 5 -10 16 -16 40 -22 201 -24 386 -6 167 16 187 16 265 1
147 -28 264 -104 294 -193 18 -51 21 -124 7 -151 -5 -9 -23 -46 -40 -82 -38
-81 -114 -174 -311 -382 -258 -271 -258 -302 7 -314 95 -4 191 -2 268 6 174
18 500 16 603 -4 116 -21 183 -54 222 -108 27 -36 31 -50 27 -85 l-5 -43 469
0 469 0 -6 24 c-7 30 18 152 58 274 27 84 30 104 26 185 -4 85 -7 98 -46 167
-62 113 -75 125 -47 45 20 -56 25 -90 25 -173 0 -109 -6 -137 -67 -327 -19
-60 -37 -116 -39 -122 -5 -18 -91 -16 -179 2 -170 36 -471 144 -655 235 -139
69 -318 133 -437 156 -105 21 -304 23 -413 5 -114 -18 -272 -62 -302 -83 -55
-38 -26 -10 58 57 47 37 112 99 146 138 80 93 191 263 216 330 30 80 38 182
19 248 -30 101 -165 202 -306 229 -31 6 -75 15 -99 20 -56 13 -103 11 -252
-10z m175 -1040 c-3 -5 -12 -10 -18 -10 -7 0 -6 4 3 10 19 12 23 12 15 0z"/>
<path d="M6240 2845 c18 -46 40 -184 40 -247 0 -105 -43 -274 -100 -392 -43
-91 -64 -121 -131 -190 -49 -50 -79 -75 -79 -64 0 41 58 168 106 233 117 158
165 307 134 415 -10 34 -70 104 -124 142 l-29 21 19 -29 c10 -16 25 -38 35
-49 40 -47 59 -103 59 -172 0 -80 -22 -134 -94 -231 -55 -74 -121 -201 -142
-273 -31 -105 -12 -189 49 -207 56 -18 130 -31 207 -38 41 -3 111 -13 155 -20
44 -8 157 -17 250 -21 137 -5 185 -3 249 11 87 18 232 21 287 6 47 -13 113
-71 129 -112 6 -18 19 -50 27 -70 l16 -38 99 0 c54 0 98 2 98 5 0 3 -7 22 -15
42 -8 19 -15 45 -15 56 0 31 -91 114 -142 129 -58 18 -385 12 -480 -7 -104
-22 -204 -18 -403 15 -270 46 -337 67 -356 112 -9 23 -4 39 54 150 37 70 83
179 107 253 l42 129 -5 171 c-5 164 -21 262 -49 290 -5 6 -4 -3 2 -20z"/>
<path d="M3576 1700 c56 -5 121 -14 145 -20 56 -15 161 -83 198 -127 21 -26
35 -34 52 -31 22 4 17 11 -52 80 -50 51 -89 80 -115 89 -21 6 -104 13 -184 15
-142 2 -143 2 -44 -6z"/>
<path d="M6825 1695 c-22 -7 -56 -20 -75 -29 -34 -16 -34 -17 -5 -11 17 4 63
9 103 12 108 8 147 -7 223 -83 55 -55 89 -78 89 -59 0 20 -37 69 -81 109 -77
69 -164 90 -254 61z"/>
<path d="M1630 1305 l0 -135 110 0 110 0 0 135 0 135 -110 0 -110 0 0 -135z"/>
<path d="M2015 1418 c8 -24 41 -65 89 -107 56 -50 56 -50 56 44 l0 85 -76 0
c-73 0 -75 -1 -69 -22z"/>
<path d="M2230 1317 c0 -82 4 -127 12 -135 8 -8 47 -12 110 -12 l98 0 0 135 0
135 -110 0 -110 0 0 -123z"/>
<path d="M2540 1305 l0 -135 110 0 110 0 0 135 0 135 -110 0 -110 0 0 -135z"/>
<path d="M2830 1305 l0 -135 110 0 110 0 0 135 0 135 -110 0 -110 0 0 -135z"/>
<path d="M3140 1305 l0 -135 110 0 110 0 0 135 0 135 -110 0 -110 0 0 -135z"/>
<path d="M3430 1305 l0 -135 110 0 110 0 0 135 0 135 -110 0 -110 0 0 -135z"/>
<path d="M3720 1305 l0 -135 115 0 115 0 0 135 0 135 -115 0 -115 0 0 -135z"/>
<path d="M4030 1305 l0 -135 110 0 110 0 0 135 0 135 -110 0 -110 0 0 -135z"/>
<path d="M4320 1305 l0 -135 115 0 115 0 0 135 0 135 -115 0 -115 0 0 -135z"/>
<path d="M4620 1305 l0 -135 115 0 115 0 0 135 0 135 -115 0 -115 0 0 -135z"/>
<path d="M4920 1305 l0 -135 115 0 115 0 0 135 0 135 -115 0 -115 0 0 -135z"/>
<path d="M5220 1305 l0 -135 115 0 115 0 0 135 0 135 -115 0 -115 0 0 -135z"/>
<path d="M5520 1305 l0 -135 115 0 115 0 0 135 0 135 -115 0 -115 0 0 -135z"/>
<path d="M5810 1305 l0 -135 115 0 115 0 0 135 0 135 -115 0 -115 0 0 -135z"/>
<path d="M6120 1305 l0 -135 110 0 110 0 0 135 0 135 -110 0 -110 0 0 -135z"/>
<path d="M6410 1305 l0 -135 115 0 115 0 0 135 0 135 -115 0 -115 0 0 -135z"/>
<path d="M6720 1305 l0 -135 110 0 110 0 0 135 0 135 -110 0 -110 0 0 -135z"/>
<path d="M7010 1305 l0 -135 110 0 110 0 0 135 0 135 -110 0 -110 0 0 -135z"/>
<path d="M7320 1305 l0 -135 110 0 110 0 0 135 0 135 -110 0 -110 0 0 -135z"/>
<path d="M1940 1247 l0 -77 58 0 c31 0 52 4 46 8 -6 4 -32 38 -57 77 l-47 70
0 -78z"/>
<path d="M2170 1096 c0 -3 37 -29 83 -58 134 -88 319 -158 452 -172 412 -45
833 -59 1035 -36 47 6 283 26 525 46 400 33 461 36 667 30 219 -6 383 -25 513
-59 46 -12 51 -16 65 -58 30 -87 48 -124 72 -145 28 -24 204 -130 268 -160
125 -59 244 -159 270 -229 14 -38 12 -143 -5 -190 l-14 -40 34 37 c66 71 92
229 56 332 -12 33 -19 61 -16 64 3 3 20 -28 40 -69 38 -82 45 -69 20 39 -39
164 -183 360 -314 426 -84 43 -233 78 -341 81 -63 1 -144 13 -240 34 -308 67
-499 77 -813 41 -247 -28 -613 -57 -903 -71 -219 -11 -287 -11 -553 5 -326 19
-336 21 -512 91 -61 25 -116 45 -122 45 -15 -1 222 -96 284 -114 28 -9 172
-22 350 -32 266 -16 334 -16 553 -5 290 14 656 43 903 71 206 24 435 26 571 5
97 -14 379 -72 392 -80 11 -7 -1 -75 -14 -75 -6 0 -27 5 -46 10 -99 29 -284
50 -498 56 -206 6 -267 3 -667 -30 -242 -20 -478 -40 -525 -46 -202 -23 -623
-9 -1035 36 -114 12 -321 85 -410 144 -71 48 -125 80 -125 76z"/>
</g>
</svg>
