<?xml version="1.0" standalone="no"?>
<!DOCTYPE svg PUBLIC "-//W3C//DTD SVG 20010904//EN"
 "http://www.w3.org/TR/2001/REC-SVG-20010904/DTD/svg10.dtd">
<svg version="1.0" xmlns="http://www.w3.org/2000/svg"
 width="564.000000pt" height="259.000000pt" viewBox="0 0 564.000000 259.000000"
 preserveAspectRatio="xMidYMid meet">

<g transform="translate(0.000000,259.000000) scale(0.100000,-0.100000)"
fill="#000000" stroke="none">
<path d="M1048 2160 c-142 -25 -268 -90 -364 -186 -39 -39 -77 -80 -83 -92
-11 -21 -11 -21 53 3 216 81 449 69 562 -29 l39 -34 -70 34 c-162 79 -340 69
-589 -32 -16 -6 -18 -4 -13 10 16 40 -15 1 -37 -49 -47 -100 -60 -164 -60
-280 -1 -126 12 -191 60 -291 35 -74 107 -174 124 -174 20 0 103 86 121 125
11 22 19 64 19 95 1 45 3 52 12 36 6 -11 11 -43 11 -71 0 -84 -35 -141 -132
-212 -2 -2 4 -12 14 -23 15 -17 16 -24 5 -50 -15 -37 -74 -91 -132 -122 l-43
-23 85 -6 c116 -9 186 -36 319 -125 80 -53 172 -79 245 -69 67 8 136 26 136
34 0 3 -35 29 -78 58 -89 59 -132 99 -132 123 0 14 14 18 88 23 161 11 286 71
412 197 128 127 186 257 197 435 15 253 -132 511 -355 624 -126 63 -297 93
-414 71z m170 -54 c108 -29 215 -121 246 -213 24 -71 18 -84 -12 -25 -72 139
-232 232 -398 232 -28 0 -43 4 -39 10 9 15 142 12 203 -4z m275 -128 l18 -33
-23 30 c-13 17 -39 48 -58 70 l-34 40 40 -37 c22 -21 48 -52 57 -70z m-326 57
c98 -29 194 -121 192 -184 0 -21 -4 -17 -23 24 -12 28 -40 65 -61 83 -65 58
-116 74 -250 82 l-120 7 106 1 c69 1 123 -3 156 -13z m363 -130 c0 -5 -5 -3
-10 5 -5 8 -10 20 -10 25 0 6 5 3 10 -5 5 -8 10 -19 10 -25z m131 -75 c22 0
89 -75 109 -123 39 -90 33 -164 -31 -366 -30 -94 -55 -162 -57 -152 -2 11 16
98 39 193 33 141 40 185 36 236 -6 81 -40 147 -98 191 -24 19 -36 31 -26 28
10 -4 23 -7 28 -7z m-718 -17 c-7 -2 -21 -2 -30 0 -10 3 -4 5 12 5 17 0 24 -2
18 -5z m557 -107 c0 -30 -29 -87 -30 -58 0 6 -8 12 -17 12 -13 1 -10 5 10 16
23 12 26 18 16 30 -6 8 -29 14 -52 14 -50 0 -41 12 16 20 53 8 57 6 57 -34z
m-240 -6 c0 -49 19 -98 49 -124 16 -15 18 -21 9 -28 -22 -13 -71 -9 -113 11
l-40 18 47 -5 46 -4 -16 48 c-17 49 -34 72 -40 54 -5 -15 -22 -12 -22 4 0 14
57 66 73 66 4 0 7 -18 7 -40z m64 0 c4 -23 19 -54 37 -75 l31 -35 -25 0 c-44
0 -91 88 -73 135 10 27 23 16 30 -25z m-276 -1 c26 -7 52 -16 57 -22 7 -7 4
-8 -10 -3 -88 31 -282 25 -423 -14 -37 -10 -68 -17 -70 -15 -4 4 109 41 163
54 58 13 228 13 283 0z m489 -56 c-3 -10 -5 -4 -5 12 0 17 2 24 5 18 2 -7 2
-21 0 -30z m52 -47 c14 -75 14 -83 0 -69 -14 14 -40 123 -32 136 9 16 20 -6
32 -67z m-479 22 c0 -12 7 -29 16 -39 15 -16 13 -19 -26 -41 l-42 -23 7 -72
c6 -74 29 -168 44 -177 4 -3 2 18 -6 47 -7 29 -11 77 -9 107 3 30 5 65 5 76 1
12 8 24 16 28 13 5 14 2 4 -15 -6 -11 -9 -23 -6 -25 2 -3 10 9 17 25 15 38 30
43 82 27 59 -17 200 0 248 31 34 21 36 22 65 5 16 -10 40 -37 53 -60 21 -37
22 -46 12 -78 -7 -19 -10 -48 -8 -63 4 -27 3 -27 -24 -17 -24 9 -31 7 -58 -19
-37 -36 -54 -84 -45 -135 5 -32 4 -40 -9 -40 -16 0 -40 -35 -32 -48 3 -4 1
-14 -4 -22 -8 -12 -14 -12 -45 3 -34 16 -75 15 -75 -1 0 -4 21 -14 48 -22 64
-20 64 -45 0 -44 -27 0 -48 -2 -48 -5 0 -8 63 -36 73 -33 12 3 8 -9 -13 -43
-27 -43 -69 -61 -111 -46 -50 17 -159 104 -229 182 -62 70 -64 74 -68 133 -2
34 2 81 8 106 6 25 12 60 14 78 1 19 12 41 25 55 l24 22 -22 -39 c-12 -21 -20
-41 -17 -43 2 -3 10 6 17 19 l13 23 7 -25 c6 -22 7 -21 8 11 1 19 8 44 16 55
24 32 17 36 -25 14 -52 -27 -58 -26 -70 13 l-10 32 7 -35 c16 -80 5 -176 -23
-205 -18 -18 -11 -26 -81 80 -19 27 -33 62 -33 78 0 21 -4 28 -14 24 -27 -11
-152 -46 -195 -56 -58 -13 -40 2 29 24 88 28 372 137 368 141 -2 1 -44 -6 -93
-16 -50 -11 -101 -19 -115 -19 -23 0 100 32 242 62 31 7 60 16 64 20 14 13 24
7 24 -15z m597 -60 c-2 -18 -4 -6 -4 27 0 33 2 48 4 33 2 -15 2 -42 0 -60z
m-964 -15 c-7 -2 -19 -2 -25 0 -7 3 -2 5 12 5 14 0 19 -2 13 -5z m938 -95
c-12 -35 -26 -70 -32 -78 -9 -13 -10 -13 -5 0 2 8 15 45 27 82 13 37 25 66 27
63 2 -2 -5 -32 -17 -67z m-899 -48 c-29 -24 -120 -58 -175 -65 -30 -4 -14 4
57 29 54 19 104 40 109 45 6 6 16 11 22 11 5 -1 0 -9 -13 -20z m742 -166 c36
-14 7 -74 -75 -161 -33 -34 -59 -59 -59 -57 0 13 42 83 69 118 21 26 31 50 31
72 0 34 6 39 34 28z m-627 -36 c-3 -7 -5 -2 -5 12 0 14 2 19 5 13 2 -7 2 -19
0 -25z m-10 -50 c-3 -8 -6 -5 -6 6 -1 11 2 17 5 13 3 -3 4 -12 1 -19z m72 -79
c34 -87 51 -159 51 -222 0 -48 -4 -62 -25 -82 -34 -35 -88 -33 -146 4 -44 29
-126 108 -118 114 2 2 25 15 51 30 65 37 116 101 136 169 9 31 20 54 23 50 3
-4 16 -32 28 -63z m-98 18 c-10 -9 -11 -8 -5 6 3 10 9 15 12 12 3 -3 0 -11 -7
-18z"/>
<path d="M1270 1516 c0 -3 19 -14 43 -24 24 -11 60 -34 80 -52 38 -33 61 -34
41 -2 -16 25 -164 96 -164 78z"/>
<path d="M875 1500 c3 -5 11 -10 16 -10 6 0 7 5 4 10 -3 6 -11 10 -16 10 -6 0
-7 -4 -4 -10z"/>
<path d="M1275 1460 c22 -11 30 -18 18 -15 -50 13 -62 13 -67 0 -6 -17 49 -75
70 -75 9 0 12 5 9 10 -3 6 -12 10 -20 10 -8 0 -11 7 -8 20 3 11 9 20 13 20 15
0 60 -42 55 -51 -4 -5 -1 -9 4 -9 14 0 14 17 0 25 -6 4 -8 13 -5 21 5 14 -43
48 -84 58 -14 3 -8 -2 15 -14z m60 -38 c-3 -3 -11 0 -18 7 -9 10 -8 11 6 5 10
-3 15 -9 12 -12z"/>
<path d="M887 1433 c-11 -10 -8 -25 3 -18 6 3 10 1 10 -5 0 -6 5 -8 10 -5 15
9 12 35 -3 35 -8 0 -17 -3 -20 -7z"/>
<path d="M900 1360 c0 -5 5 -10 10 -10 6 0 10 5 10 10 0 6 -4 10 -10 10 -5 0
-10 -4 -10 -10z"/>
<path d="M1011 1344 c0 -11 3 -14 6 -6 3 7 2 16 -1 19 -3 4 -6 -2 -5 -13z"/>
<path d="M1336 1221 c-4 -7 -5 -15 -2 -18 9 -9 19 4 14 18 -4 11 -6 11 -12 0z"/>
<path d="M1368 1173 c7 -3 16 -2 19 1 4 3 -2 6 -13 5 -11 0 -14 -3 -6 -6z"/>
<path d="M2811 1491 c-17 -11 -7 -41 13 -41 22 0 30 20 15 36 -9 8 -19 10 -28
5z"/>
<path d="M4841 1486 c-9 -10 -8 -16 4 -26 19 -16 41 1 32 24 -8 20 -21 20 -36
2z"/>
<path d="M2047 1473 c-4 -3 -7 -13 -7 -21 0 -9 -8 -24 -17 -34 -14 -16 -15
-24 -5 -52 7 -18 12 -60 12 -94 0 -50 -3 -62 -16 -62 -26 0 -13 -49 18 -68 26
-15 29 -15 45 1 10 10 55 41 101 68 96 58 118 85 105 126 -10 31 -48 53 -130
78 -32 10 -57 25 -67 40 -17 25 -27 30 -39 18z m151 -114 c53 -22 55 -47 7
-86 -38 -32 -110 -73 -127 -73 -12 0 -6 159 6 179 8 13 57 5 114 -20z"/>
<path d="M4347 1473 c-4 -3 -7 -19 -7 -34 0 -15 -5 -31 -10 -34 -7 -4 -8 -30
-4 -68 3 -34 8 -99 11 -144 5 -85 16 -101 43 -68 9 11 11 32 6 70 -7 62 -18
54 105 74 102 17 99 18 99 -38 0 -28 5 -53 11 -56 5 -4 57 8 114 27 114 36
140 59 53 47 -29 -4 -66 -7 -83 -7 -27 0 -25 2 23 24 57 26 65 50 16 47 -16
-1 -40 1 -54 4 -21 5 -15 9 38 27 35 11 62 26 60 31 -1 6 -40 10 -86 10 -88 1
-102 -6 -102 -53 0 -21 -39 -32 -115 -32 -68 0 -86 9 -83 39 3 25 7 26 90 37
94 11 101 14 93 35 -4 11 -25 13 -96 11 -72 -3 -90 -1 -86 10 9 26 -19 59 -36
41z"/>
<path d="M3144 1383 c-20 -32 -42 -68 -50 -79 -9 -15 -20 -20 -37 -17 -30 6
-47 -16 -23 -29 15 -8 14 -12 -4 -48 -25 -49 -25 -60 -1 -60 21 0 61 44 61 66
0 19 33 34 78 34 l38 0 10 -52 c7 -39 14 -54 28 -56 26 -5 42 13 27 31 -6 8
-12 32 -14 53 -2 36 0 39 25 42 27 3 27 3 21 -51 -5 -49 -3 -56 15 -61 11 -4
60 0 109 9 48 8 93 15 98 16 6 0 1 4 -10 9 -11 5 -55 6 -97 3 -75 -6 -77 -5
-83 18 -9 36 10 79 35 79 11 0 20 4 20 9 0 4 -11 6 -24 4 -21 -4 -24 0 -29 37
-3 23 -8 45 -12 48 -13 13 -25 -24 -19 -59 5 -34 3 -37 -23 -42 -15 -3 -30 -4
-31 -2 -2 2 -5 26 -6 54 -2 38 -9 58 -26 76 -13 14 -27 25 -32 25 -4 0 -24
-26 -44 -57z m62 -70 l7 -43 -43 0 c-47 0 -48 7 -7 67 26 38 34 33 43 -24z"/>
<path d="M5055 1427 c-3 -6 -6 -41 -8 -77 l-2 -65 -42 -3 -43 -3 0 41 c0 34
-3 41 -17 38 -18 -3 -22 -24 -22 -133 0 -46 11 -75 29 -75 13 0 21 32 11 44
-15 18 0 33 42 41 l37 7 0 -43 c0 -96 37 -90 42 6 l3 60 65 22 c59 19 62 21
30 22 -19 1 -50 -3 -68 -9 l-34 -9 7 74 c6 66 5 75 -9 75 -9 0 -19 -6 -21 -13z"/>
<path d="M2716 1404 c-3 -9 -6 -55 -6 -102 l0 -87 -56 58 c-31 32 -62 56 -68
54 -6 -2 -11 -17 -11 -33 0 -26 -4 -29 -30 -29 -24 0 -31 5 -38 30 -34 114
-58 122 -108 38 -19 -32 -46 -64 -61 -71 -18 -8 -28 -21 -28 -35 0 -12 -7 -31
-15 -41 -37 -49 4 -64 45 -17 20 23 36 30 78 35 43 6 52 4 52 -9 0 -25 31 -65
51 -65 23 0 34 17 21 33 -5 7 -13 27 -17 45 -5 25 -3 32 8 32 9 0 22 3 31 6
12 5 15 -4 18 -43 2 -35 7 -48 18 -48 10 0 16 12 18 38 2 20 7 37 11 37 4 0
25 -18 46 -40 25 -25 47 -40 59 -38 18 3 20 11 18 126 -1 68 -4 127 -7 132 -9
15 -22 12 -29 -6z m-256 -98 c0 -8 3 -21 6 -29 4 -10 -4 -16 -25 -19 -41 -6
-44 -1 -20 33 22 31 39 38 39 15z"/>
<path d="M3664 1375 c-4 -14 -20 -51 -37 -82 l-31 -57 -26 59 c-15 33 -34 66
-43 74 -33 27 -31 -17 6 -97 19 -42 38 -87 41 -99 14 -43 39 -26 73 47 18 39
36 82 39 95 9 36 31 51 32 23 1 -13 5 -54 9 -93 l8 -70 30 3 c17 2 57 13 90
24 33 12 69 22 80 23 11 1 21 8 23 17 2 12 -6 13 -50 7 -29 -4 -66 -7 -83 -7
-27 0 -25 2 23 24 81 37 58 61 -37 39 -60 -14 -31 17 38 40 34 11 62 25 62 30
-2 13 -162 14 -179 1 -10 -7 -17 -5 -23 7 -15 25 -38 21 -45 -8z"/>
<path d="M4088 1381 c-26 -10 -98 -80 -98 -96 0 -20 52 -45 95 -45 45 0 45
-17 0 -36 -48 -20 -82 -18 -95 6 -15 27 -30 25 -30 -4 0 -54 87 -73 159 -36
81 41 57 110 -39 110 -39 0 -45 15 -15 37 66 46 68 48 54 60 -8 6 -21 8 -31 4z"/>
<path d="M2800 1254 c0 -104 0 -105 23 -102 20 3 22 9 25 73 4 96 -4 135 -28
135 -19 0 -20 -7 -20 -106z"/>
<path d="M4837 1353 c-9 -8 -9 -62 -1 -142 6 -50 10 -61 25 -61 17 0 19 9 19
89 0 49 -3 96 -6 105 -6 16 -26 21 -37 9z"/>
</g>
</svg>
